# Object Export From Tinkercad Server 2015

mtllib obj.mtl

o obj_0
v -11.115 		32.805 		0
v -11.41 		9.575 		0
v -12.25 		33.655 		0
v -29.058 		-4.374 		0
v -13.096 		34.126 		0
v -29.082 		-7.691 		0
v -29.79 		-6.995 		0
v -30.088 		-6.575 		0
v -30.36 		-6.135 		0
v -30.829 		-5.3 		0
v -11.403 		10.202 		0
v -31.28 		-4.455 		0
v -11.37 		10.825 		0
v -8.75 		18.255 		0
v -11.2 		-4.415 		0
v -10.994 		12.227 		0
v -11.616 		-5.175 		0
v -11.616 		-5.175 		0.1
v -10.56 		13.615 		0
v -10.001 		14.916 		0
v -11.2 		-4.415 		0.1
v -9.426 		9.907 		0
v -9.507 		8.43 		0
v -13.97 		34.545 		0
v -15.302 		35.016 		0
v -9.41 		4.585 		0
v -9.41 		4.585 		0.1
v -9.413 		4.194 		0.1
v -9.413 		4.194 		0
v -24.74 		-7.905 		0.1
v -9.59 		7.465 		0
v -29.058 		-4.374 		0.1
v -14.478 		-7.366 		0
v -14.94 		-7.475 		0
v -14.94 		-7.475 		0.1
v -14.478 		-7.366 		0.1
v -9.604 		6.599 		0
v -16.13 		37.375 		0
v -14.615 		36.896 		0
v -13.12 		36.355 		0
v -12.115 		35.858 		0
v -11.14 		35.305 		0
v -9.901 		34.395 		0
v -8.71 		33.425 		0
v -9.59 		5.735 		0
v -14.02 		-7.245 		0
v -14.02 		-7.245 		0.1
v -16.65 		35.435 		0
v -9.503 		5.159 		0
v -31.28 		-4.455 		0.1
v -30.829 		-5.3 		0.1
v -15.994 		-7.878 		0
v -30.36 		-6.135 		0.1
v -30.088 		-6.575 		0.1
v -29.79 		-6.995 		0.1
v -15.994 		-7.878 		0.1
v -29.082 		-7.691 		0.1
v -17.511 		35.585 		0
v -11.413 		4.099 		0
v -18.38 		35.685 		0
v -11.41 		4.485 		0
v -13.339 		-6.89 		0
v -19.82 		35.704 		0
v -13.339 		-6.89 		0.1
v -12.68 		-6.495 		0
v -12.68 		-6.495 		0.1
v -27.47 		-9.065 		0.1
v -26.865 		-9.335 		0.1
v -26.24 		-9.565 		0.1
v -25.254 		-9.821 		0.1
v -12.37 		-6.216 		0
v -12.37 		-6.216 		0.1
v -28.35 		-8.365 		0.1
v -27.92 		-8.73 		0.1
v -25.254 		-9.821 		0
v -11.504 		5.059 		0
v -26.24 		-9.565 		0
v -11.59 		5.635 		0
v -11.6 		6.639 		0
v -11.58 		7.645 		0
v -19.825 		37.707 		0
v -9.076 		17.23 		0
v -26.865 		-9.335 		0
v -18.29 		37.685 		0
v -9.076 		17.23 		0.1
v -17.205 		37.56 		0
v -8.75 		18.255 		0.1
v -13.903 		-9.287 		0
v -13.903 		-9.287 		0.1
v -8.655 		18.749 		0
v -21.26 		35.685 		0
v -8.655 		18.749 		0.1
v -13.41 		-9.155 		0
v -13.41 		-9.155 		0.1
v -9.41 		3.805 		0
v -8.56 		19.245 		0
v -8.56 		19.245 		0.1
v -22.007 		35.62 		0
v -10.89 		0.845 		0
v -15.49 		-9.812 		0
v -22.75 		35.525 		0
v -15.49 		-9.812 		0.1
v -27.863 		32.643 		0.1
v -27.863 		32.643 		0
v -11.137 		2.281 		0
v -23.338 		35.381 		0
v -14.4 		-9.405 		0.1
v -14.4 		-9.405 		0
v -28.05 		32.375 		0.1
v -28.05 		32.375 		0
v -12.486 		-8.695 		0
v -12.486 		-8.695 		0.1
v -23.92 		35.215 		0
v -11.41 		3.715 		0
v -28.153 		32.084 		0.1
v -28.153 		32.084 		0
v -24.3 		35.075 		0
v -9.135 		2.361 		0
v -8.89 		0.915 		0
v -31.3 		15.515 		0
v -28.23 		31.785 		0.1
v -31.134 		15.964 		0
v -28.23 		31.785 		0
v -32.04 		12.815 		0
v -28.275 		31.401 		0.1
v -28.275 		31.401 		0
v -22.85 		-8.175 		0
v -24.49 		37.125 		0
v -23.764 		37.328 		0
v -9.43 		16.215 		0.1
v -23.03 		37.505 		0
v -22.85 		-8.175 		0.1
v -22.197 		37.612 		0
v -21.36 		37.685 		0
v -28.3 		31.015 		0.1
v -28.3 		31.015 		0
v -31.76 		13.385 		0
v -24.302 		-7.999 		0
v -25.645 		34.365 		0
v -26.6 		33.785 		0
v -24.302 		-7.999 		0.1
v -28.293 		30.147 		0.1
v -28.293 		30.147 		0
v -31.666 		13.928 		0
v -27.137 		33.353 		0
v -29.07 		15.785 		0
v -29.353 		14.92 		0
v -27.65 		32.895 		0
v -23.355 		-8.123 		0
v -23.355 		-8.123 		0.1
v -23.86 		-8.075 		0
v -28 		28.755 		0
v -28 		28.755 		0.1
v -23.86 		-8.075 		0.1
v -28.25 		29.285 		0.1
v -28.25 		29.285 		0
v -29.63 		14.055 		0
v -28.134 		29.018 		0.1
v -24.67 		34.915 		0
v -28.134 		29.018 		0
v -19.815 		-10.507 		0
v -19.815 		-10.507 		0.1
v -29.764 		13.338 		0
v -29.9 		12.625 		0
v -18.36 		-10.495 		0
v -18.36 		-10.495 		0.1
v -30.18 		32.255 		0
v -30.18 		32.255 		0.1
v -17.925 		-10.459 		0
v -29.99 		32.865 		0
v -17.925 		-10.459 		0.1
v -31.58 		14.475 		0
v -29.75 		33.455 		0
v -31.448 		14.996 		0
v -29.376 		33.95 		0
v -28.96 		34.415 		0
v -28.359 		34.942 		0
v -27.73 		35.435 		0
v -26.616 		36.108 		0
v -30.259 		31.677 		0
v -25.48 		36.745 		0
v -24.991 		36.948 		0
v -30.259 		31.677 		0.1
v -17.49 		-10.405 		0
v -17.49 		-10.405 		0.1
v -17.033 		-10.321 		0
v -30.3 		31.095 		0
v -17.033 		-10.321 		0.1
v -30.3 		31.095 		0.1
v -30.19 		12.045 		0
v -16.58 		-10.215 		0
v -16.58 		-10.215 		0.1
v -30.247 		29.763 		0
v -30.3 		29.571 		0
v -30.3 		29.571 		0.1
v -30.247 		29.763 		0.1
v -7.371 		24.664 		0
v -30.538 		10.673 		0
v -30.86 		9.295 		0
v -7.39 		25.585 		0
v -19.815 		-8.511 		0
v -19.815 		-8.511 		0.1
v -30.22 		29.905 		0
v -30.912 		8.92 		0
v -7.484 		27.016 		0
v -30.22 		29.905 		0.1
v -18.46 		-8.495 		0
v -18.46 		-8.495 		0.1
v -30.265 		28.889 		0
v -30.271 		28.872 		0
v -7.64 		28.435 		0
v -30.271 		28.872 		0.1
v -17.751 		-8.404 		0
v -30.265 		28.889 		0.1
v -32.438 		11.273 		0
v -17.751 		-8.404 		0.1
v -30.96 		8.545 		0
v -7.919 		29.245 		0
v -17.05 		-8.265 		0
v -17.05 		-8.265 		0.1
v -30.26 		28.905 		0
v -30.26 		28.905 		0.1
v -24.26 		-10.045 		0
v -24.26 		-10.045 		0.1
v -31.176 		7.57 		0
v -7.59 		32.226 		0
v -22.29 		-10.385 		0
v -6.53 		30.975 		0
v -22.29 		-10.385 		0.1
v -6.275 		30.472 		0
v -6.06 		29.945 		0
v -5.841 		29.344 		0
v -5.66 		28.735 		0
v -5.501 		27.243 		0
v -31.39 		6.595 		0
v -5.39 		25.745 		0
v -30.238 		29.212 		0
v -5.377 		24.599 		0
v -21.782 		-10.452 		0
v -21.782 		-10.452 		0.1
v -30.238 		29.212 		0.1
v -31.433 		6.27 		0
v -21.27 		-10.495 		0
v -21.27 		-10.495 		0.1
v -31.46 		5.945 		0
v -8.29 		30.015 		0
v -30.27 		29.515 		0
v -31.475 		5.184 		0
v -30.27 		29.515 		0.1
v -23.751 		-10.097 		0
v -23.751 		-10.097 		0.1
v -9.121 		30.986 		0
v -31.46 		4.425 		0
v -23.24 		-10.145 		0.1
v -10.02 		31.905 		0
v -23.24 		-10.145 		0
v -31.289 		3.409 		0
v -30.282 		29.54 		0
v -31.11 		2.395 		0
v -31.11 		1.645 		0
v -30.282 		29.54 		0.1
v -21.85 		-8.425 		0
v -22.35 		-8.299 		0
v -22.35 		-8.299 		0.1
v -21.85 		-8.425 		0.1
v -30.918 		0.306 		0
v -6.05 		20.455 		0
v -6.349 		19.58 		0
v -30.258 		30.499 		0
v -21.511 		-8.469 		0
v -21.511 		-8.469 		0.1
v -30.258 		30.499 		0.1
v -5.41 		23.455 		0
v -5.577 		22.457 		0
v -21.17 		-8.495 		0
v -5.78 		21.465 		0
v -5.908 		20.958 		0
v -21.17 		-8.495 		0.1
v -33.479 		5.259 		0
v -33.45 		6.195 		0
v -33.32 		7.086 		0
v -33.16 		7.975 		0
v -33.036 		8.475 		0
v -29.26 		25.495 		0
v -29.26 		25.495 		0.1
v -6.64 		18.705 		0
v -32.91 		8.975 		0
v -29.321 		25.992 		0
v -32.66 		-1.385 		0
v -32.66 		-1.385 		0.1
v -29.321 		25.992 		0.1
v -8.132 		20.619 		0
v -29.41 		26.485 		0
v -32.432 		-2.053 		0
v -32.907 		0.065 		0
v -32.432 		-2.053 		0.1
v -33.11 		1.525 		0
v -29.41 		26.485 		0.1
v -7.71 		21.995 		0
v -29.642 		27.309 		0
v -32.16 		-2.705 		0
v -32.16 		-2.705 		0.1
v -33.11 		2.305 		0
v -29.642 		27.309 		0.1
v -7.529 		22.866 		0
v -29.9 		28.125 		0
v -29.9 		28.125 		0.1
v -33.291 		3.314 		0
v -33.46 		4.325 		0
v -7.39 		23.745 		0
v -32.862 		9.35 		0
v -31.927 		-3.091 		0
v -32.81 		9.725 		0
v -30.059 		28.455 		0
v -31.927 		-3.091 		0.1
v -30.059 		28.455 		0.1
v -31.69 		-3.475 		0
v -11.008 		-3.595 		0
v -31.69 		-3.475 		0.1
v -10.89 		-2.755 		0
v -27.26 		25.575 		0
v -27.26 		25.575 		0.1
v -6.74 		18.179 		0
v -6.84 		17.655 		0
v -7.206 		16.535 		0
v -10.853 		-0.955 		0
v -27.332 		26.222 		0
v -27.332 		26.222 		0.1
v -29.87 		-2.645 		0
v -29.87 		-2.645 		0.1
v -27.44 		26.865 		0
v -29.45 		-3.645 		0.1
v -29.45 		-3.645 		0
v -8.856 		-1.066 		0
v -27.44 		26.865 		0.1
v -8.91 		-3.045 		0
v -30.69 		-1.025 		0.1
v -30.69 		-1.025 		0
v -27.707 		27.813 		0
v -27.707 		27.813 		0.1
v -12.09 		-5.905 		0
v -30.541 		-1.436 		0.1
v -30.541 		-1.436 		0
v -29.368 		22.464 		0
v -30.36 		-1.835 		0.1
v -29.49 		21.955 		0
v -30.36 		-1.835 		0
v -29.49 		21.955 		0.1
v -29.368 		22.464 		0.1
v -29.26 		22.975 		0
v -29.26 		22.975 		0.1
v -29.59 		20.915 		0
v -9.096 		-4.179 		0
v -9.38 		-5.285 		0
v -9.94 		-6.282 		0
v -29.59 		20.915 		0.1
v -10.58 		-7.235 		0
v -11.063 		-7.735 		0
v -11.59 		-8.185 		0
v -29.532 		21.432 		0
v -29.532 		21.432 		0.1
v -28.65 		-5.095 		0.1
v -28.65 		-5.095 		0
v -28.44 		-5.438 		0.1
v -28.44 		-5.438 		0
v -29.24 		24.234 		0
v -29.24 		24.234 		0.1
v -28.21 		-5.765 		0.1
v -28.21 		-5.765 		0
v -27.61 		-6.344 		0
v -27.61 		-6.344 		0.1
v -27.393 		22.144 		0
v -27.393 		22.144 		0.1
v -9.426 		9.907 		0.1
v -26.99 		-6.905 		0
v -27.28 		22.645 		0
v -27.28 		22.645 		0.1
v -26.99 		-6.905 		0.1
v -26.684 		-7.166 		0
v -9.41 		10.415 		0.1
v -26.684 		-7.166 		0.1
v -27.586 		20.987 		0
v -27.586 		20.987 		0.1
v -26.36 		-7.395 		0
v -26.36 		-7.395 		0.1
v -27.52 		21.645 		0.1
v -27.52 		21.645 		0
v -25.558 		-7.668 		0
v -25.558 		-7.668 		0.1
v -27.248 		24.109 		0
v -27.248 		24.109 		0.1
v -24.74 		-7.905 		0
v -30.049 		19.554 		0
v -30.52 		18.195 		0
v -30.52 		18.195 		0.1
v -30.049 		19.554 		0.1
v -30.747 		17.305 		0
v -30.747 		17.305 		0.1
v -30.97 		16.415 		0
v -30.97 		16.415 		0.1
v -28.138 		18.948 		0
v -28.138 		18.948 		0.1
v -28.62 		17.565 		0.1
v -28.62 		17.565 		0
v -27.67 		20.335 		0
v -27.67 		20.335 		0.1
v -28.35 		-8.365 		0
v -27.92 		-8.73 		0
v -28.848 		16.675 		0.1
v -28.848 		16.675 		0
v -27.47 		-9.065 		0
v -7.6 		15.425 		0
v -7.6 		15.425 		0.1
v -8.135 		14.206 		0.1
v -8.135 		14.206 		0
v -8.66 		12.985 		0.1
v -8.66 		12.985 		0
v -9.062 		11.706 		0.1
v -9.062 		11.706 		0
v -9.59 		7.465 		0.1
v -9.42 		9.395 		0
v -9.42 		9.395 		0.1
v -9.507 		8.43 		0.1
v -9.604 		6.599 		0.1
v -9.59 		5.735 		0.1
v -9.503 		5.159 		0.1
v -9.41 		10.415 		0
v -11.58 		7.645 		0.1
v -11.6 		6.639 		0.1
v -9.43 		16.215 		0
v -11.59 		5.635 		0.1
v -11.413 		4.099 		0.1
v -10.001 		14.916 		0.1
v -11.504 		5.059 		0.1
v -10.56 		13.615 		0.1
v -11.41 		4.485 		0.1
v -11.115 		32.805 		0.1
v -10.994 		12.227 		0.1
v -12.25 		33.655 		0.1
v -11.37 		10.825 		0.1
v -8.89 		0.915 		0.1
v -13.096 		34.126 		0.1
v -11.498 		8.61 		0
v -11.498 		8.61 		0.1
v -13.97 		34.545 		0.1
v -9.135 		2.361 		0.1
v -15.302 		35.016 		0.1
v -9.41 		3.805 		0.1
v -11.403 		10.202 		0.1
v -11.41 		9.575 		0.1
v -13.12 		36.355 		0.1
v -14.615 		36.896 		0.1
v -16.13 		37.375 		0.1
v -11.41 		3.715 		0.1
v -8.71 		33.425 		0.1
v -9.901 		34.395 		0.1
v -11.14 		35.305 		0.1
v -12.115 		35.858 		0.1
v -10.89 		0.845 		0.1
v -16.65 		35.435 		0.1
v -11.137 		2.281 		0.1
v -17.511 		35.585 		0.1
v -18.38 		35.685 		0.1
v -31.3 		15.515 		0.1
v -31.134 		15.964 		0.1
v -19.82 		35.704 		0.1
v -18.29 		37.685 		0.1
v -19.825 		37.707 		0.1
v -31.448 		14.996 		0.1
v -17.205 		37.56 		0.1
v -32.04 		12.815 		0.1
v -21.26 		35.685 		0.1
v -22.007 		35.62 		0.1
v -31.58 		14.475 		0.1
v -22.75 		35.525 		0.1
v -31.76 		13.385 		0.1
v -23.338 		35.381 		0.1
v -31.666 		13.928 		0.1
v -23.92 		35.215 		0.1
v -24.3 		35.075 		0.1
v -29.9 		12.625 		0.1
v -21.36 		37.685 		0.1
v -22.197 		37.612 		0.1
v -29.07 		15.785 		0.1
v -23.03 		37.505 		0.1
v -29.353 		14.92 		0.1
v -23.764 		37.328 		0.1
v -24.49 		37.125 		0.1
v -26.6 		33.785 		0.1
v -25.645 		34.365 		0.1
v -27.137 		33.353 		0.1
v -27.65 		32.895 		0.1
v -29.764 		13.338 		0.1
v -29.63 		14.055 		0.1
v -24.67 		34.915 		0.1
v -32.438 		11.273 		0.1
v -24.991 		36.948 		0.1
v -25.48 		36.745 		0.1
v -26.616 		36.108 		0.1
v -27.73 		35.435 		0.1
v -28.359 		34.942 		0.1
v -28.96 		34.415 		0.1
v -29.376 		33.95 		0.1
v -29.75 		33.455 		0.1
v -29.99 		32.865 		0.1
v -30.96 		8.545 		0.1
v -30.19 		12.045 		0.1
v -7.371 		24.664 		0.1
v -30.538 		10.673 		0.1
v -7.39 		25.585 		0.1
v -30.86 		9.295 		0.1
v -7.484 		27.016 		0.1
v -30.912 		8.92 		0.1
v -7.64 		28.435 		0.1
v -7.919 		29.245 		0.1
v -31.11 		2.395 		0.1
v -31.11 		1.645 		0.1
v -31.176 		7.57 		0.1
v -5.377 		24.599 		0.1
v -5.39 		25.745 		0.1
v -5.501 		27.243 		0.1
v -5.66 		28.735 		0.1
v -5.841 		29.344 		0.1
v -31.39 		6.595 		0.1
v -6.06 		29.945 		0.1
v -6.275 		30.472 		0.1
v -6.53 		30.975 		0.1
v -7.59 		32.226 		0.1
v -31.433 		6.27 		0.1
v -31.46 		5.945 		0.1
v -8.29 		30.015 		0.1
v -31.475 		5.184 		0.1
v -9.121 		30.986 		0.1
v -10.02 		31.905 		0.1
v -31.46 		4.425 		0.1
v -31.289 		3.409 		0.1
v -6.05 		20.455 		0.1
v -6.349 		19.58 		0.1
v -30.918 		0.306 		0.1
v -5.41 		23.455 		0.1
v -5.908 		20.958 		0.1
v -32.81 		9.725 		0.1
v -5.78 		21.465 		0.1
v -5.577 		22.457 		0.1
v -33.036 		8.475 		0.1
v -6.64 		18.705 		0.1
v -33.16 		7.975 		0.1
v -8.132 		20.619 		0.1
v -33.32 		7.086 		0.1
v -7.71 		21.995 		0.1
v -33.45 		6.195 		0.1
v -7.529 		22.866 		0.1
v -33.479 		5.259 		0.1
v -7.39 		23.745 		0.1
v -32.862 		9.35 		0.1
v -6.84 		17.655 		0.1
v -6.74 		18.179 		0.1
v -32.91 		8.975 		0.1
v -7.206 		16.535 		0.1
v -33.46 		4.325 		0.1
v -33.11 		1.525 		0.1
v -32.907 		0.065 		0.1
v -33.291 		3.314 		0.1
v -33.11 		2.305 		0.1
v -8.91 		-3.045 		0.1
v -8.856 		-1.066 		0.1
v -11.008 		-3.595 		0.1
v -10.89 		-2.755 		0.1
v -10.853 		-0.955 		0.1
v -11.59 		-8.185 		0.1
v -11.063 		-7.735 		0.1
v -10.58 		-7.235 		0.1
v -9.94 		-6.282 		0.1
v -9.38 		-5.285 		0.1
v -9.096 		-4.179 		0.1
v -12.09 		-5.905 		0.1
# 576 vertices

g group_0_2829873

usemtl color_2829873
s 0

f 363 	365 	9
f 8 	9 	365
f 333 	4 	10
f 12 	333 	10
f 15 	17 	18
f 15 	18 	21
f 24 	25 	39
f 39 	40 	24
f 16 	427 	13
f 13 	427 	11
f 19 	419 	16
f 20 	417 	19
f 2 	11 	22
f 22 	421 	2
f 38 	39 	25
f 385 	381 	67
f 67 	68 	385
f 68 	69 	389
f 33 	34 	35
f 33 	35 	36
f 37 	79 	31
f 5 	24 	40
f 40 	41 	5
f 41 	42 	3
f 42 	43 	3
f 255 	1 	44
f 1 	3 	43
f 226 	252 	44
f 45 	78 	37
f 31 	80 	23
f 46 	33 	36
f 46 	36 	47
f 58 	86 	48
f 25 	48 	38
f 56 	35 	52
f 34 	52 	35
f 60 	86 	58
f 54 	55 	368
f 55 	57 	368
f 371 	368 	57
f 57 	73 	371
f 378 	371 	73
f 73 	74 	378
f 51 	53 	32
f 32 	332 	51
f 63 	81 	60
f 62 	46 	47
f 62 	47 	64
f 65 	62 	64
f 65 	64 	66
f 71 	65 	66
f 71 	66 	72
f 30 	389 	70
f 69 	70 	389
f 389 	385 	68
f 26 	27 	28
f 26 	28 	29
f 14 	82 	85
f 14 	85 	87
f 29 	61 	26
f 61 	29 	59
f 61 	76 	49
f 45 	49 	76
f 45 	76 	78
f 79 	37 	78
f 80 	31 	79
f 443 	23 	80
f 81 	84 	60
f 86 	60 	84
f 38 	48 	86
f 90 	14 	87
f 90 	87 	92
f 93 	94 	89
f 93 	89 	88
f 49 	26 	61
f 96 	90 	92
f 96 	92 	97
f 98 	133 	91
f 112 	94 	93
f 63 	91 	81
f 128 	129 	106
f 101 	106 	129
f 108 	88 	107
f 89 	107 	88
f 104 	103 	109
f 104 	109 	110
f 111 	112 	93
f 113 	128 	106
f 110 	109 	115
f 110 	115 	116
f 117 	182 	113
f 59 	95 	114
f 105 	114 	95
f 95 	118 	105
f 95 	59 	29
f 99 	105 	118
f 99 	118 	119
f 108 	107 	102
f 108 	102 	100
f 116 	115 	121
f 116 	121 	123
f 570 	112 	111
f 123 	121 	125
f 123 	125 	126
f 127 	132 	264
f 129 	131 	101
f 101 	131 	98
f 133 	98 	131
f 134 	91 	133
f 81 	91 	134
f 126 	125 	135
f 126 	135 	136
f 138 	392 	30
f 138 	30 	141
f 136 	135 	142
f 136 	142 	143
f 144 	172 	157
f 127 	149 	150
f 127 	150 	132
f 151 	138 	141
f 151 	141 	154
f 149 	151 	154
f 149 	154 	150
f 173 	175 	104
f 104 	110 	173
f 156 	143 	155
f 142 	155 	143
f 157 	174 	147
f 219 	56 	52
f 156 	155 	158
f 156 	158 	160
f 160 	158 	153
f 160 	153 	152
f 165 	166 	162
f 165 	162 	161
f 170 	167 	168
f 169 	171 	166
f 169 	166 	165
f 164 	137 	163
f 163 	144 	157
f 190 	137 	164
f 199 	313 	198
f 144 	163 	137
f 174 	157 	172
f 120 	147 	174
f 122 	147 	120
f 399 	146 	122
f 167 	180 	183
f 167 	183 	168
f 184 	185 	171
f 184 	171 	169
f 186 	188 	185
f 186 	185 	184
f 180 	187 	189
f 180 	189 	183
f 177 	178 	140
f 178 	179 	140
f 139 	140 	179
f 159 	139 	179
f 179 	181 	159
f 117 	159 	181
f 182 	117 	181
f 128 	113 	182
f 140 	145 	177
f 176 	177 	145
f 145 	148 	176
f 175 	176 	148
f 148 	104 	175
f 191 	192 	188
f 191 	188 	186
f 193 	194 	195
f 193 	195 	196
f 198 	215 	190
f 191 	100 	192
f 102 	192 	100
f 287 	311 	204
f 203 	193 	196
f 203 	196 	206
f 205 	236 	200
f 207 	201 	202
f 207 	202 	208
f 211 	234 	205
f 236 	238 	200
f 209 	210 	212
f 209 	212 	214
f 213 	207 	208
f 213 	208 	216
f 228 	230 	246
f 219 	213 	216
f 219 	216 	220
f 137 	190 	124
f 124 	190 	215
f 217 	287 	204
f 245 	280 	242
f 253 	257 	308
f 199 	204 	311
f 219 	220 	56
f 221 	209 	214
f 221 	214 	222
f 225 	283 	217
f 70 	223 	224
f 314 	316 	210
f 235 	281 	225
f 237 	221 	222
f 237 	222 	241
f 239 	240 	229
f 239 	229 	227
f 243 	244 	240
f 243 	240 	239
f 218 	246 	230
f 231 	218 	230
f 232 	218 	231
f 233 	211 	232
f 234 	211 	233
f 274 	305 	273
f 236 	205 	234
f 218 	232 	211
f 226 	228 	246
f 243 	161 	244
f 162 	244 	161
f 242 	281 	235
f 247 	237 	241
f 247 	241 	249
f 250 	251 	224
f 250 	224 	223
f 252 	226 	246
f 308 	309 	253
f 256 	227 	254
f 229 	254 	227
f 212 	210 	316
f 257 	259 	303
f 256 	254 	251
f 256 	251 	250
f 260 	303 	259
f 258 	247 	249
f 258 	249 	261
f 255 	44 	252
f 43 	44 	1
f 3 	5 	41
f 262 	263 	264
f 262 	264 	265
f 303 	308 	257
f 268 	292 	267
f 261 	195 	258
f 194 	258 	195
f 263 	127 	264
f 270 	262 	265
f 270 	265 	271
f 269 	203 	206
f 269 	206 	272
f 266 	295 	260
f 275 	270 	271
f 275 	271 	278
f 187 	269 	272
f 187 	272 	189
f 277 	299 	276
f 267 	292 	277
f 276 	299 	274
f 281 	242 	280
f 282 	225 	281
f 287 	217 	283
f 278 	202 	275
f 201 	275 	202
f 284 	367 	285
f 286 	96 	268
f 305 	310 	273
f 288 	284 	285
f 288 	285 	291
f 293 	288 	291
f 293 	291 	298
f 289 	294 	296
f 289 	296 	290
f 303 	260 	297
f 294 	301 	302
f 294 	302 	296
f 300 	293 	298
f 300 	298 	304
f 253 	309 	248
f 238 	273 	310
f 299 	277 	292
f 317 	12 	50
f 317 	50 	319
f 306 	300 	304
f 306 	304 	307
f 310 	197 	238
f 90 	323 	14
f 301 	312 	315
f 301 	315 	302
f 280 	245 	279
f 279 	248 	309
f 248 	279 	245
f 283 	225 	282
f 215 	198 	313
f 311 	313 	199
f 314 	306 	307
f 314 	307 	316
f 320 	336 	318
f 312 	317 	319
f 312 	319 	315
f 197 	200 	238
f 305 	274 	299
f 323 	90 	286
f 324 	14 	323
f 326 	334 	320
f 327 	328 	322
f 327 	322 	321
f 329 	330 	332
f 329 	332 	333
f 331 	335 	328
f 331 	328 	327
f 336 	320 	334
f 99 	119 	326
f 334 	326 	119
f 338 	266 	337
f 539 	337 	266
f 339 	340 	335
f 339 	335 	331
f 338 	337 	342
f 338 	342 	343
f 339 	152 	340
f 153 	340 	152
f 292 	268 	96
f 96 	286 	90
f 353 	354 	15
f 343 	342 	345
f 343 	345 	347
f 344 	346 	348
f 344 	348 	349
f 15 	318 	353
f 347 	345 	330
f 347 	330 	329
f 350 	344 	349
f 350 	349 	351
f 116 	170 	110
f 73 	57 	407
f 123 	167 	116
f 170 	173 	110
f 355 	357 	341
f 341 	17 	355
f 71 	341 	357
f 358 	71 	357
f 359 	65 	358
f 111 	62 	359
f 354 	355 	17
f 17 	15 	354
f 336 	353 	318
f 360 	352 	356
f 360 	356 	361
f 362 	363 	4
f 126 	180 	123
f 361 	348 	360
f 346 	360 	348
f 363 	362 	364
f 363 	364 	365
f 366 	350 	351
f 366 	351 	367
f 365 	364 	368
f 365 	368 	369
f 284 	366 	367
f 370 	369 	368
f 370 	368 	371
f 62 	111 	46
f 375 	370 	371
f 375 	371 	378
f 170 	116 	167
f 136 	143 	269
f 376 	377 	373
f 376 	373 	372
f 33 	46 	88
f 379 	375 	378
f 379 	378 	381
f 160 	314 	156
f 71 	358 	65
f 65 	359 	62
f 384 	379 	381
f 384 	381 	385
f 152 	306 	160
f 387 	372 	386
f 373 	386 	372
f 388 	384 	385
f 388 	385 	389
f 34 	33 	108
f 52 	34 	108
f 377 	376 	391
f 390 	391 	376
f 392 	388 	389
f 392 	389 	30
f 391 	390 	321
f 209 	156 	210
f 387 	386 	383
f 387 	383 	382
f 88 	108 	33
f 100 	52 	108
f 93 	88 	46
f 111 	93 	46
f 322 	391 	321
f 12 	10 	51
f 12 	51 	50
f 393 	394 	395
f 393 	395 	396
f 258 	194 	143
f 221 	156 	209
f 151 	223 	138
f 10 	9 	53
f 10 	53 	51
f 193 	203 	143
f 9 	8 	54
f 9 	54 	53
f 396 	356 	393
f 352 	393 	356
f 127 	256 	149
f 149 	250 	151
f 193 	143 	194
f 203 	269 	143
f 398 	395 	397
f 394 	397 	395
f 8 	7 	55
f 8 	55 	54
f 247 	258 	143
f 126 	136 	187
f 143 	156 	247
f 6 	57 	55
f 6 	55 	7
f 465 	400 	399
f 397 	399 	400
f 397 	400 	398
f 6 	407 	57
f 191 	186 	219
f 401 	402 	403
f 401 	403 	404
f 221 	237 	156
f 314 	210 	156
f 237 	247 	156
f 269 	187 	136
f 180 	126 	187
f 167 	123 	180
f 4 	333 	32
f 332 	32 	333
f 100 	191 	219
f 405 	406 	402
f 405 	402 	401
f 4 	32 	362
f 288 	327 	284
f 405 	382 	406
f 383 	406 	382
f 293 	331 	288
f 408 	74 	73
f 408 	73 	407
f 404 	403 	409
f 404 	409 	410
f 184 	169 	213
f 207 	213 	169
f 169 	165 	207
f 165 	161 	207
f 201 	207 	161
f 243 	275 	161
f 186 	184 	213
f 213 	219 	186
f 100 	219 	52
f 411 	67 	74
f 411 	74 	408
f 306 	152 	300
f 83 	68 	67
f 83 	67 	411
f 412 	413 	414
f 412 	414 	415
f 239 	270 	243
f 77 	69 	68
f 77 	68 	83
f 256 	263 	227
f 75 	70 	69
f 75 	69 	77
f 70 	75 	223
f 262 	227 	263
f 413 	412 	325
f 314 	160 	306
f 339 	300 	152
f 331 	293 	339
f 327 	288 	331
f 321 	284 	327
f 289 	290 	562
f 270 	239 	262
f 263 	256 	127
f 414 	416 	417
f 414 	417 	415
f 417 	416 	418
f 417 	418 	419
f 423 	420 	31
f 423 	31 	23
f 223 	151 	250
f 250 	149 	256
f 275 	243 	270
f 227 	262 	239
f 201 	161 	275
f 421 	422 	423
f 421 	423 	23
f 344 	387 	346
f 360 	382 	352
f 31 	420 	424
f 31 	424 	37
f 350 	372 	344
f 427 	419 	418
f 37 	424 	425
f 37 	425 	45
f 422 	421 	22
f 45 	425 	426
f 45 	426 	49
f 387 	344 	372
f 372 	350 	376
f 390 	376 	350
f 49 	426 	27
f 49 	27 	26
f 343 	347 	301
f 418 	380 	427
f 317 	312 	347
f 443 	80 	428
f 443 	428 	444
f 427 	380 	374
f 427 	374 	22
f 347 	329 	317
f 80 	79 	429
f 80 	429 	428
f 382 	405 	352
f 382 	360 	387
f 350 	366 	390
f 321 	390 	366
f 366 	284 	321
f 300 	339 	293
f 430 	20 	130
f 12 	317 	333
f 79 	78 	431
f 79 	431 	429
f 82 	430 	130
f 59 	432 	436
f 422 	22 	374
f 401 	352 	405
f 59 	114 	454
f 59 	454 	432
f 410 	397 	404
f 404 	393 	401
f 407 	375 	408
f 408 	379 	411
f 83 	411 	384
f 77 	388 	75
f 20 	433 	130
f 78 	76 	434
f 78 	434 	431
f 297 	260 	295
f 20 	19 	435
f 20 	435 	433
f 61 	59 	436
f 19 	16 	438
f 19 	438 	435
f 393 	404 	394
f 394 	404 	397
f 399 	397 	410
f 352 	401 	393
f 346 	387 	360
f 410 	146 	399
f 147 	122 	146
f 76 	61 	436
f 76 	436 	434
f 16 	13 	440
f 16 	440 	438
f 455 	456 	437
f 2 	443 	444
f 415 	430 	412
f 325 	82 	324
f 28 	448 	29
f 439 	437 	456
f 118 	446 	441
f 118 	441 	119
f 419 	19 	417
f 439 	458 	442
f 13 	11 	449
f 13 	449 	440
f 448 	95 	29
f 412 	430 	325
f 95 	448 	446
f 95 	446 	118
f 2 	444 	450
f 427 	16 	419
f 14 	324 	82
f 11 	2 	450
f 11 	450 	449
f 23 	2 	421
f 470 	460 	453
f 452 	453 	447
f 447 	445 	452
f 451 	452 	445
f 445 	442 	451
f 456 	457 	439
f 458 	439 	457
f 451 	442 	458
f 99 	569 	459
f 417 	20 	415
f 105 	99 	459
f 105 	459 	461
f 329 	333 	317
f 9 	10 	4
f 312 	301 	347
f 338 	289 	266
f 301 	294 	343
f 338 	343 	294
f 294 	289 	338
f 295 	266 	289
f 447 	453 	460
f 114 	105 	461
f 114 	461 	454
f 22 	11 	427
f 430 	415 	20
f 82 	325 	430
f 462 	460 	470
f 365 	369 	8
f 122 	120 	464
f 122 	464 	465
f 2 	23 	443
f 463 	462 	470
f 7 	8 	369
f 120 	174 	464
f 6 	7 	369
f 399 	122 	465
f 370 	6 	369
f 174 	469 	464
f 468 	482 	472
f 472 	466 	468
f 466 	463 	468
f 467 	468 	463
f 467 	463 	470
f 226 	44 	455
f 375 	407 	370
f 137 	124 	471
f 137 	471 	476
f 496 	471 	124
f 44 	43 	456
f 44 	456 	455
f 384 	411 	379
f 174 	172 	474
f 174 	474 	469
f 43 	42 	457
f 43 	457 	456
f 77 	83 	388
f 379 	408 	375
f 42 	41 	458
f 42 	458 	457
f 392 	75 	388
f 482 	483 	472
f 144 	137 	476
f 144 	476 	478
f 41 	40 	451
f 41 	451 	458
f 473 	472 	483
f 40 	39 	452
f 40 	452 	451
f 172 	144 	478
f 172 	478 	474
f 483 	485 	473
f 6 	370 	407
f 384 	388 	83
f 138 	75 	392
f 223 	75 	138
f 39 	38 	453
f 39 	453 	452
f 507 	164 	481
f 4 	363 	9
f 38 	470 	453
f 146 	484 	486
f 146 	486 	147
f 487 	488 	477
f 479 	477 	488
f 477 	475 	487
f 488 	497 	479
f 480 	479 	497
f 497 	498 	480
f 485 	487 	475
f 475 	473 	485
f 435 	438 	418
f 418 	416 	435
f 433 	435 	416
f 428 	429 	420
f 1 	437 	439
f 1 	439 	3
f 147 	486 	494
f 3 	439 	442
f 3 	442 	5
f 146 	410 	484
f 409 	484 	410
f 490 	495 	499
f 491 	502 	492
f 5 	442 	445
f 5 	445 	24
f 163 	493 	481
f 163 	481 	164
f 24 	445 	447
f 24 	447 	25
f 494 	157 	147
f 492 	503 	103
f 460 	48 	447
f 25 	447 	48
f 157 	494 	493
f 157 	493 	163
f 380 	418 	438
f 438 	440 	380
f 440 	449 	380
f 374 	380 	449
f 449 	450 	374
f 422 	374 	450
f 444 	423 	450
f 423 	422 	450
f 124 	215 	496
f 38 	86 	470
f 86 	84 	467
f 86 	467 	470
f 84 	81 	468
f 84 	468 	467
f 444 	428 	423
f 217 	506 	518
f 499 	500 	489
f 501 	489 	500
f 502 	491 	501
f 503 	492 	502
f 489 	490 	499
f 125 	121 	183
f 504 	103 	503
f 489 	501 	491
f 498 	499 	495
f 495 	480 	498
f 420 	423 	428
f 507 	190 	164
f 48 	460 	462
f 48 	462 	58
f 190 	507 	509
f 190 	509 	198
f 58 	462 	463
f 58 	463 	60
f 454 	448 	432
f 198 	509 	511
f 198 	511 	199
f 60 	463 	466
f 60 	466 	63
f 510 	508 	519
f 199 	511 	513
f 199 	513 	204
f 63 	466 	472
f 519 	520 	510
f 204 	513 	506
f 204 	506 	217
f 482 	468 	134
f 81 	134 	468
f 518 	225 	217
f 134 	133 	483
f 134 	483 	482
f 27 	426 	436
f 434 	436 	426
f 426 	425 	434
f 431 	434 	425
f 432 	28 	436
f 425 	424 	431
f 429 	431 	424
f 424 	420 	429
f 259 	516 	517
f 259 	517 	260
f 133 	131 	485
f 133 	485 	483
f 131 	129 	487
f 131 	487 	485
f 27 	436 	28
f 129 	128 	488
f 129 	488 	487
f 225 	518 	524
f 225 	524 	235
f 497 	488 	128
f 235 	524 	529
f 235 	529 	242
f 525 	515 	523
f 515 	514 	523
f 526 	515 	525
f 527 	531 	526
f 522 	523 	514
f 521 	522 	514
f 455 	533 	528
f 528 	531 	527
f 514 	512 	521
f 520 	521 	512
f 512 	510 	520
f 242 	529 	530
f 242 	530 	245
f 472 	91 	63
f 245 	530 	532
f 245 	532 	248
f 28 	432 	448
f 454 	461 	448
f 446 	448 	461
f 461 	459 	446
f 441 	446 	459
f 91 	472 	473
f 91 	473 	98
f 515 	526 	531
f 531 	528 	533
f 248 	532 	535
f 248 	535 	253
f 98 	473 	475
f 98 	475 	101
f 253 	535 	536
f 253 	536 	257
f 101 	475 	477
f 101 	477 	106
f 533 	455 	534
f 437 	534 	455
f 257 	536 	516
f 257 	516 	259
f 106 	477 	479
f 106 	479 	113
f 260 	517 	539
f 260 	539 	266
f 113 	479 	480
f 113 	480 	117
f 215 	313 	542
f 215 	542 	496
f 552 	550 	544
f 544 	540 	552
f 554 	552 	540
f 519 	554 	540
f 117 	480 	495
f 283 	545 	558
f 465 	464 	486
f 400 	465 	484
f 128 	182 	497
f 543 	544 	550
f 283 	282 	547
f 283 	547 	545
f 182 	181 	498
f 182 	498 	497
f 282 	281 	549
f 282 	549 	547
f 181 	179 	499
f 181 	499 	498
f 281 	280 	551
f 281 	551 	549
f 179 	178 	500
f 179 	500 	499
f 280 	279 	553
f 280 	553 	551
f 481 	493 	476
f 478 	476 	493
f 493 	494 	478
f 474 	478 	494
f 469 	474 	494
f 494 	486 	469
f 464 	469 	486
f 546 	538 	97
f 178 	177 	501
f 178 	501 	500
f 313 	311 	555
f 313 	555 	542
f 177 	176 	502
f 177 	502 	501
f 287 	283 	558
f 176 	175 	503
f 176 	503 	502
f 476 	507 	481
f 560 	553 	279
f 550 	548 	541
f 541 	543 	550
f 537 	541 	548
f 554 	519 	508
f 538 	537 	548
f 548 	97 	538
f 557 	546 	92
f 97 	92 	546
f 175 	173 	504
f 175 	504 	503
f 476 	471 	507
f 311 	287 	558
f 311 	558 	555
f 173 	170 	505
f 173 	505 	504
f 509 	507 	496
f 279 	309 	560
f 168 	505 	170
f 297 	561 	564
f 490 	489 	140
f 490 	140 	139
f 297 	295 	562
f 297 	562 	561
f 295 	289 	562
f 140 	489 	491
f 140 	491 	145
f 92 	87 	557
f 87 	85 	556
f 309 	308 	563
f 309 	563 	560
f 518 	506 	545
f 558 	506 	513
f 542 	555 	511
f 496 	542 	509
f 496 	507 	471
f 511 	509 	542
f 145 	491 	492
f 145 	492 	148
f 303 	297 	564
f 558 	545 	506
f 308 	303 	564
f 308 	564 	563
f 148 	492 	103
f 148 	103 	104
f 575 	336 	565
f 109 	103 	504
f 495 	159 	117
f 334 	566 	565
f 334 	565 	336
f 504 	505 	109
f 334 	119 	566
f 441 	566 	119
f 159 	495 	490
f 159 	490 	139
f 318 	15 	21
f 318 	21 	567
f 273 	238 	519
f 115 	109 	505
f 320 	318 	567
f 320 	567 	568
f 236 	520 	519
f 236 	519 	238
f 505 	168 	115
f 524 	518 	549
f 547 	549 	518
f 326 	320 	568
f 326 	568 	569
f 234 	521 	520
f 234 	520 	236
f 549 	551 	529
f 529 	524 	549
f 99 	326 	569
f 168 	183 	121
f 121 	115 	168
f 536 	535 	563
f 560 	563 	535
f 233 	522 	521
f 233 	521 	234
f 545 	547 	518
f 563 	564 	536
f 359 	570 	111
f 183 	189 	125
f 232 	523 	522
f 232 	522 	233
f 135 	125 	189
f 358 	571 	570
f 358 	570 	359
f 231 	525 	523
f 231 	523 	232
f 516 	536 	564
f 517 	516 	564
f 539 	517 	562
f 230 	526 	525
f 230 	525 	231
f 357 	572 	571
f 357 	571 	358
f 228 	527 	526
f 228 	526 	230
f 355 	573 	572
f 355 	572 	357
f 551 	553 	530
f 532 	530 	553
f 535 	532 	560
f 553 	560 	532
f 354 	574 	573
f 354 	573 	355
f 226 	528 	527
f 226 	527 	228
f 530 	529 	551
f 353 	575 	574
f 353 	574 	354
f 455 	528 	226
f 575 	353 	336
f 341 	71 	72
f 341 	72 	576
f 564 	561 	517
f 561 	562 	517
f 513 	511 	555
f 558 	513 	555
f 200 	197 	508
f 200 	508 	510
f 153 	158 	307
f 17 	341 	576
f 17 	576 	18
f 241 	222 	155
f 195 	261 	155
f 205 	200 	510
f 205 	510 	512
f 21 	575 	567
f 249 	241 	155
f 261 	249 	155
f 196 	195 	155
f 158 	155 	222
f 214 	158 	222
f 211 	205 	512
f 211 	512 	514
f 575 	565 	567
f 155 	142 	206
f 272 	206 	142
f 206 	196 	155
f 142 	135 	272
f 189 	272 	135
f 218 	211 	514
f 218 	514 	515
f 568 	567 	565
f 565 	566 	568
f 569 	568 	566
f 441 	569 	566
f 569 	441 	459
f 367 	322 	285
f 246 	218 	515
f 322 	328 	285
f 291 	285 	328
f 246 	515 	531
f 328 	335 	291
f 298 	291 	335
f 252 	246 	531
f 252 	531 	533
f 570 	571 	66
f 72 	66 	571
f 571 	572 	72
f 335 	340 	298
f 304 	298 	340
f 340 	153 	304
f 316 	307 	158
f 214 	212 	158
f 212 	316 	158
f 307 	304 	153
f 255 	252 	533
f 255 	533 	534
f 255 	534 	437
f 255 	437 	1
f 402 	406 	356
f 406 	383 	356
f 325 	559 	413
f 576 	72 	572
f 572 	573 	576
f 18 	576 	573
f 573 	574 	18
f 21 	18 	574
f 575 	21 	574
f 325 	324 	556
f 325 	556 	559
f 322 	367 	391
f 377 	391 	351
f 268 	267 	537
f 268 	537 	538
f 386 	373 	349
f 351 	349 	373
f 373 	377 	351
f 367 	351 	391
f 537 	267 	277
f 349 	348 	386
f 35 	56 	107
f 36 	35 	107
f 348 	361 	386
f 383 	386 	361
f 277 	541 	537
f 277 	276 	543
f 277 	543 	541
f 361 	356 	383
f 356 	396 	402
f 403 	402 	396
f 396 	395 	403
f 395 	398 	403
f 409 	403 	398
f 400 	409 	398
f 486 	484 	465
f 409 	400 	484
f 276 	274 	544
f 276 	544 	543
f 559 	556 	85
f 556 	557 	87
f 85 	130 	559
f 274 	273 	540
f 274 	540 	544
f 112 	570 	64
f 413 	559 	130
f 414 	413 	130
f 64 	47 	112
f 519 	540 	273
f 130 	433 	414
f 323 	557 	556
f 323 	556 	324
f 416 	414 	433
f 538 	546 	286
f 538 	286 	268
f 66 	64 	570
f 94 	112 	47
f 89 	94 	47
f 47 	36 	89
f 107 	89 	36
f 102 	107 	56
f 70 	141 	30
f 286 	546 	557
f 286 	557 	323
f 299 	292 	548
f 299 	548 	550
f 154 	141 	224
f 70 	224 	141
f 305 	299 	550
f 305 	550 	552
f 310 	305 	552
f 310 	552 	554
f 554 	508 	310
f 197 	310 	508
f 97 	548 	96
f 292 	96 	548
f 82 	130 	85
f 162 	166 	208
f 208 	202 	162
f 185 	188 	216
f 220 	216 	188
f 188 	192 	220
f 102 	220 	192
f 171 	185 	216
f 56 	220 	102
f 216 	208 	171
f 166 	171 	208
f 278 	271 	244
f 162 	278 	244
f 150 	154 	251
f 251 	254 	150
f 224 	251 	154
f 264 	132 	254
f 132 	150 	254
f 271 	265 	240
f 240 	244 	271
f 229 	240 	265
f 202 	278 	162
f 265 	264 	229
f 254 	229 	264
f 50 	51 	332
f 337 	539 	290
f 290 	296 	337
f 296 	302 	342
f 332 	330 	319
f 330 	345 	319
f 319 	50 	332
f 315 	319 	345
f 302 	315 	345
f 345 	342 	302
f 342 	337 	296
f 290 	539 	562
f 362 	32 	53
f 364 	362 	53
f 53 	54 	364
f 368 	364 	54
f 381 	378 	74
f 74 	67 	381
# 1152 faces

 #end of obj_0

